<svg version="1.1" viewBox="0.0 0.0 960.0 960.0" fill="none" stroke="none" stroke-linecap="square" stroke-miterlimit="10" xmlns:xlink="http://www.w3.org/1999/xlink" xmlns="http://www.w3.org/2000/svg"><clipPath id="g3486abc701a_2_72.0"><path d="m0 0l960.0 0l0 960.0l-960.0 0l0 -960.0z" clip-rule="nonzero"/></clipPath><g clip-path="url(#g3486abc701a_2_72.0)"><path fill="#000000" fill-opacity="0.0" d="m0 0l960.0 0l0 960.0l-960.0 0z" fill-rule="evenodd"/><path fill="#9900ff" d="m-3.9632545E-5 720.0l240.0 0l0 240.0l-240.0 0z" fill-rule="evenodd"/><path fill="#8500eb" d="m719.9988 480.0l240.0 0l0 240.0l-240.0 0z" fill-rule="evenodd"/><path fill="#7100d7" d="m480.00232 480.0l240.0 0l0 240.0l-240.0 0z" fill-rule="evenodd"/><path fill="#5d00c3" d="m240.00093 480.0l240.00002 0l0 240.0l-240.00002 0z" fill-rule="evenodd"/><path fill="#4900af" d="m0.0016007874 480.0l240.0 0l0 240.0l-240.0 0z" fill-rule="evenodd"/><path fill="#49009b" d="m719.9995 240.0l240.0 0l0 240.0l-240.0 0z" fill-rule="evenodd"/><path fill="#5d009b" d="m479.99976 240.0l240.0 0l0 240.0l-240.0 0z" fill-rule="evenodd"/><path fill="#6200a0" d="m240.00371 240.0l239.99998 0l0 240.0l-239.99998 0z" fill-rule="evenodd"/><path fill="#71009b" d="m0.0023194226 240.0l240.0 0l0 240.0l-240.0 0z" fill-rule="evenodd"/><path fill="#710087" d="m719.99786 0l240.0 0l0 240.0l-240.0 0z" fill-rule="evenodd"/><path fill="#710073" d="m479.9981 0l240.0 0l0 240.0l-240.0 0z" fill-rule="evenodd"/><path fill="#71005f" d="m239.99837 0l240.00002 0l0 240.0l-240.00002 0z" fill-rule="evenodd"/><path fill="#ad00ff" d="m240.00043 720.0l240.0 0l0 240.0l-240.0 0z" fill-rule="evenodd"/><path fill="#c100ff" d="m480.0009 720.0l239.99997 0l0 240.0l-239.99997 0z" fill-rule="evenodd"/><path fill="#d500ff" d="m719.99805 720.0l240.0 0l0 240.0l-240.0 0z" fill-rule="evenodd"/><path fill="#5d005f" d="m0.0011937008 0l240.0 0l0 240.0l-240.0 0z" fill-rule="evenodd"/></g></svg>